<svg id="svg" version="1.1" xmlns="http://www.w3.org/2000/svg" xmlns:xlink="http://www.w3.org/1999/xlink" width="400" height="400" viewBox="0, 0, 400,400"><g id="svgg"><path id="path0" d="M0.000 200.000 L 0.000 400.000 200.000 400.000 L 400.000 400.000 400.000 200.000 L 400.000 0.000 200.000 0.000 L 0.000 0.000 0.000 200.000 M99.200 174.800 L 99.200 201.600 97.200 201.600 L 95.200 201.600 95.200 174.800 L 95.200 148.000 97.200 148.000 L 99.200 148.000 99.200 174.800 M136.998 160.244 C 140.488 161.120,143.999 164.231,145.746 167.995 C 147.088 170.889,147.731 178.203,146.844 180.500 L 146.420 181.600 131.610 181.600 L 116.800 181.600 116.800 183.316 C 116.800 187.291,118.989 192.388,122.082 195.614 C 128.855 202.680,141.591 201.034,143.387 192.861 C 143.608 191.852,143.831 191.603,144.338 191.800 C 144.702 191.941,145.495 192.156,146.100 192.278 C 147.465 192.553,147.465 192.796,146.103 195.486 C 144.770 198.119,141.872 200.484,138.547 201.653 C 135.909 202.580,126.674 202.646,125.561 201.746 C 125.252 201.497,124.436 201.172,123.746 201.025 C 119.332 200.082,114.400 194.555,112.931 188.905 C 111.743 184.337,111.451 176.645,112.418 175.400 C 112.589 175.180,112.857 174.280,113.015 173.400 C 114.768 163.607,125.956 157.470,136.998 160.244 M200.155 161.189 C 203.484 162.818,205.247 164.502,206.590 167.342 C 207.937 170.190,207.945 170.169,205.243 170.987 C 202.548 171.803,202.170 171.685,201.779 169.903 C 201.299 167.719,197.412 164.275,194.691 163.622 C 184.705 161.226,177.848 168.206,177.817 180.800 L 177.803 186.600 179.445 190.000 C 183.212 197.799,191.550 201.071,198.452 197.459 C 200.648 196.310,203.600 192.659,203.600 191.092 C 203.600 190.091,204.135 189.976,206.350 190.502 C 208.696 191.060,208.644 190.926,207.639 193.785 C 205.920 198.676,201.269 201.858,194.800 202.568 C 192.435 202.828,186.520 202.273,185.328 201.679 C 184.927 201.479,183.430 200.759,182.000 200.079 C 179.424 198.853,176.491 196.329,175.399 194.400 C 174.658 193.090,173.437 190.597,172.558 188.600 C 171.231 185.582,171.434 173.044,172.825 172.184 C 173.019 172.064,173.362 171.285,173.586 170.453 C 175.938 161.716,190.705 156.567,200.155 161.189 M246.874 160.253 C 248.153 160.612,249.200 161.066,249.200 161.263 C 249.200 161.459,249.639 161.787,250.177 161.991 C 251.213 162.385,254.400 166.919,254.400 168.000 C 254.400 168.352,254.586 168.826,254.813 169.053 C 255.638 169.878,256.014 176.871,255.908 189.400 L 255.800 202.200 251.727 202.314 L 247.653 202.427 247.511 187.714 L 247.369 173.000 246.288 170.908 C 244.314 167.092,239.705 165.858,235.175 167.935 C 231.980 169.399,229.236 173.940,228.195 179.488 C 227.832 181.420,227.370 183.553,227.168 184.228 C 226.965 184.904,226.800 189.275,226.800 193.942 L 226.800 202.428 222.700 202.314 L 218.600 202.200 218.600 181.200 L 218.600 160.200 221.000 160.200 L 223.400 160.200 223.926 163.800 C 224.215 165.780,224.620 167.713,224.826 168.095 C 225.031 168.477,225.201 169.467,225.202 170.295 L 225.205 171.800 225.759 170.739 C 226.063 170.155,226.528 169.025,226.791 168.227 C 229.156 161.060,237.684 157.674,246.874 160.253 M292.011 160.040 C 293.139 160.282,294.543 160.731,295.131 161.037 C 295.719 161.344,296.410 161.596,296.668 161.598 C 297.793 161.603,301.703 165.817,302.865 168.276 C 304.463 171.658,304.782 174.274,304.792 184.074 C 304.802 194.521,305.166 195.352,309.600 195.065 C 310.553 195.003,310.606 195.115,310.718 197.447 L 310.835 199.894 308.770 201.219 C 304.940 203.677,297.520 202.874,294.699 199.696 C 293.642 198.506,292.400 196.017,292.398 195.088 C 292.397 194.352,292.209 194.480,291.298 195.837 C 287.934 200.852,284.690 202.573,278.642 202.553 C 270.461 202.526,266.014 198.601,266.007 191.400 C 265.998 183.464,271.827 180.169,285.353 180.462 L 291.707 180.600 291.485 176.899 C 291.089 170.266,289.369 168.000,284.731 168.000 C 281.047 168.000,279.200 169.677,279.200 173.021 L 279.200 175.064 276.300 175.738 C 266.590 177.996,267.367 178.083,266.811 174.671 C 266.318 171.641,266.889 168.283,268.186 166.583 C 268.744 165.851,269.200 165.073,269.200 164.854 C 269.200 164.634,269.560 164.340,270.000 164.200 C 270.440 164.060,270.800 163.781,270.800 163.580 C 270.800 163.254,274.642 161.081,274.897 161.262 C 274.954 161.302,275.427 161.107,275.949 160.827 C 278.113 159.669,288.018 159.183,292.011 160.040 M349.859 160.830 C 353.564 162.777,354.699 163.844,356.667 167.232 C 358.412 170.236,358.537 170.358,358.982 169.503 C 360.166 167.230,361.975 164.835,363.961 162.912 C 370.418 156.661,382.709 159.444,385.821 167.861 C 386.215 168.928,386.676 169.986,386.845 170.213 C 387.586 171.206,388.000 178.271,388.000 189.897 L 388.000 202.416 379.300 202.308 L 370.600 202.200 370.400 188.741 C 370.214 176.227,370.147 175.224,369.438 174.441 C 367.511 172.314,363.358 174.546,362.188 178.337 C 361.804 179.582,361.359 180.780,361.200 181.000 C 360.595 181.833,360.279 185.274,360.043 193.600 L 359.800 202.200 351.120 202.308 L 342.440 202.415 342.320 188.849 C 342.185 173.536,342.197 173.598,339.238 173.601 C 334.191 173.607,332.483 178.135,332.072 192.600 L 331.800 202.200 324.300 202.309 L 316.800 202.418 316.800 181.209 L 316.800 160.000 321.304 160.000 C 326.749 160.000,326.422 159.663,327.403 166.300 C 328.230 171.900,328.365 172.038,329.952 168.900 C 334.100 160.702,342.859 157.151,349.859 160.830 M128.400 161.867 C 122.427 163.894,117.608 169.983,116.943 176.342 L 116.686 178.800 129.443 178.797 L 142.200 178.794 142.700 177.717 C 143.308 176.409,143.363 172.548,142.779 172.187 C 142.547 172.044,142.433 171.718,142.524 171.463 C 142.870 170.498,141.061 166.661,139.544 165.144 C 136.720 162.320,131.547 160.799,128.400 161.867 M287.400 184.990 C 287.180 185.060,285.712 185.513,284.139 185.996 C 279.466 187.432,277.157 191.729,279.695 194.266 C 281.295 195.867,289.200 194.914,289.200 193.121 C 289.200 192.936,289.628 192.106,290.151 191.278 C 290.731 190.359,291.214 188.803,291.390 187.286 L 291.679 184.800 289.739 184.832 C 288.673 184.849,287.620 184.920,287.400 184.990 M18.892 227.600 L 18.784 245.200 28.992 245.200 L 39.200 245.200 39.200 247.200 L 39.200 249.200 26.800 249.200 L 14.400 249.200 14.400 229.600 L 14.400 210.000 16.700 210.000 L 19.000 210.000 18.892 227.600 M66.000 218.800 C 66.000 228.603,66.005 228.616,68.464 225.822 C 69.324 224.845,70.427 223.921,70.914 223.769 C 71.401 223.617,71.902 223.334,72.027 223.140 C 73.269 221.217,79.274 222.027,81.658 224.440 C 91.075 233.966,83.554 253.408,72.400 248.369 C 70.252 247.399,67.794 245.112,66.912 243.263 C 65.643 240.605,64.444 241.235,64.366 244.600 C 64.300 247.497,63.911 248.579,62.884 248.728 L 62.000 248.856 62.000 229.428 L 62.000 210.000 64.000 210.000 L 66.000 210.000 66.000 218.800 M51.200 213.146 L 51.200 215.893 49.100 215.846 L 47.000 215.800 46.882 213.100 L 46.763 210.400 48.982 210.400 L 51.200 210.400 51.200 213.146 M108.629 222.264 C 113.434 223.883,114.494 226.426,114.685 236.800 C 114.854 245.989,115.058 246.872,116.971 246.707 C 118.302 246.591,118.400 246.694,118.400 248.200 C 118.400 249.091,118.235 249.200,116.880 249.200 C 114.039 249.200,111.200 246.537,111.200 243.872 C 111.200 242.851,110.563 243.064,109.530 244.431 C 108.631 245.620,107.244 247.094,106.000 248.180 C 104.347 249.623,98.992 249.792,97.458 248.449 C 97.050 248.092,96.600 247.824,96.458 247.853 C 95.615 248.025,93.482 245.284,93.041 243.462 C 92.320 240.483,96.123 236.220,99.864 235.812 C 101.149 235.672,102.650 235.459,103.200 235.337 C 104.530 235.044,108.771 235.104,109.900 235.432 C 110.964 235.741,111.271 229.554,110.288 227.612 C 109.684 226.417,107.242 224.698,106.535 224.970 C 106.255 225.077,105.919 224.993,105.789 224.783 C 105.465 224.258,100.911 224.297,100.583 224.827 C 100.438 225.062,100.067 225.158,99.760 225.040 C 99.452 224.922,99.200 224.987,99.200 225.186 C 99.200 225.384,98.867 225.652,98.461 225.781 C 97.525 226.078,96.800 227.647,96.800 229.373 C 96.800 230.356,96.536 230.881,95.800 231.363 C 95.250 231.724,94.800 231.902,94.800 231.760 C 94.800 231.618,94.558 231.703,94.263 231.948 C 93.968 232.193,93.608 232.275,93.463 232.130 C 93.062 231.728,93.150 228.478,93.569 228.219 C 93.772 228.094,94.051 227.478,94.189 226.852 C 95.044 222.959,103.097 220.400,108.629 222.264 M127.511 223.800 C 127.572 224.680,127.785 225.760,127.984 226.200 C 128.184 226.640,128.462 228.035,128.602 229.300 C 128.912 232.093,129.715 232.356,130.340 229.871 C 131.413 225.613,136.378 221.804,140.513 222.067 C 147.104 222.486,148.670 226.110,148.492 240.522 L 148.384 249.243 146.492 249.122 L 144.600 249.000 144.400 238.503 L 144.200 228.006 143.074 226.963 C 141.543 225.544,138.075 225.200,135.442 226.205 C 133.550 226.928,133.305 227.214,131.648 230.634 C 131.124 231.715,130.497 232.960,130.254 233.400 C 129.993 233.872,129.752 237.203,129.667 241.520 L 129.523 248.841 127.662 248.720 L 125.800 248.600 125.695 235.271 L 125.589 221.943 126.495 222.071 C 127.240 222.177,127.420 222.483,127.511 223.800 M51.200 235.822 L 51.200 249.244 49.300 249.122 L 47.400 249.000 47.294 236.203 C 47.172 221.456,47.029 222.400,49.387 222.400 L 51.200 222.400 51.200 235.822 M71.857 225.211 C 71.228 225.400,70.404 225.835,70.025 226.178 C 69.645 226.521,69.219 226.686,69.077 226.544 C 68.935 226.402,68.692 226.626,68.537 227.043 C 68.383 227.459,67.793 228.507,67.228 229.371 C 66.042 231.183,65.618 240.339,66.702 240.701 C 66.979 240.793,67.098 241.041,66.968 241.252 C 66.838 241.463,66.949 241.897,67.215 242.218 C 67.480 242.538,67.594 242.800,67.467 242.800 C 66.983 242.800,69.292 244.828,70.516 245.478 C 76.459 248.633,81.218 244.506,81.531 235.926 C 81.832 227.667,77.963 223.382,71.857 225.211 M102.084 237.645 C 99.191 238.495,96.607 241.023,96.889 242.728 C 97.278 245.083,99.186 246.763,101.744 247.004 C 103.213 247.142,108.508 245.299,108.178 244.764 C 108.054 244.564,108.122 244.400,108.329 244.400 C 109.068 244.400,110.866 240.186,110.730 238.769 L 110.600 237.400 107.000 237.329 C 105.020 237.290,102.808 237.432,102.084 237.645 " stroke="none" fill="#fbfbfb" fill-rule="evenodd"></path><path id="path1" d="M95.600 174.771 C 95.600 203.793,95.420 201.716,97.900 201.269 L 98.800 201.107 98.800 174.753 L 98.800 148.400 97.200 148.400 L 95.600 148.400 95.600 174.771 M126.400 160.589 C 125.410 160.883,124.150 161.259,123.600 161.425 C 121.249 162.133,115.179 167.691,115.500 168.841 C 115.555 169.039,115.444 169.200,115.254 169.200 C 114.920 169.200,114.513 170.216,113.040 174.733 C 111.109 180.649,112.668 189.898,116.469 195.079 C 118.336 197.624,123.160 201.004,124.439 200.664 C 124.570 200.629,124.952 200.828,125.288 201.107 C 125.624 201.386,126.173 201.508,126.509 201.380 C 126.844 201.251,127.238 201.338,127.383 201.573 C 127.739 202.148,136.261 202.148,136.617 201.573 C 136.762 201.338,137.129 201.241,137.433 201.357 C 138.993 201.956,144.295 198.095,145.592 195.417 C 146.709 193.108,146.445 192.455,144.374 192.405 C 144.249 192.402,143.752 193.354,143.269 194.519 C 139.228 204.269,119.929 200.969,118.112 190.217 C 118.039 189.787,117.814 189.332,117.612 189.208 C 117.067 188.871,116.421 185.696,116.410 183.300 L 116.400 181.200 130.800 181.150 C 147.716 181.091,146.044 181.193,146.432 180.200 C 146.811 179.227,146.904 172.237,146.542 171.875 C 146.399 171.733,146.243 171.118,146.193 170.508 C 145.978 167.844,141.082 161.802,138.800 161.384 C 138.690 161.364,137.622 161.044,136.427 160.674 C 133.833 159.869,128.960 159.828,126.400 160.589 M185.000 160.669 C 183.900 161.017,182.248 161.819,181.328 162.451 C 180.408 163.083,179.564 163.600,179.453 163.600 C 178.282 163.600,174.426 169.216,173.136 172.800 C 172.034 175.862,171.700 187.167,172.702 187.501 C 172.979 187.593,173.103 187.833,172.979 188.034 C 172.855 188.235,172.896 188.625,173.070 188.900 C 173.245 189.175,173.405 189.490,173.427 189.600 C 173.609 190.541,175.260 193.600,175.586 193.600 C 175.814 193.600,176.000 193.831,176.000 194.113 C 176.000 195.095,180.584 199.091,182.900 200.127 C 184.165 200.693,185.200 201.054,185.200 200.929 C 185.200 200.804,185.451 200.910,185.757 201.164 C 186.659 201.913,192.690 202.423,195.400 201.979 C 196.720 201.763,198.025 201.559,198.300 201.526 C 198.575 201.493,198.800 201.317,198.800 201.133 C 198.800 200.950,199.081 200.800,199.425 200.800 C 200.184 200.800,204.400 198.775,204.400 198.411 C 204.400 198.268,204.767 197.757,205.216 197.275 C 205.664 196.794,205.921 196.400,205.787 196.400 C 205.653 196.400,205.789 196.154,206.090 195.853 C 208.196 193.747,207.669 190.844,205.175 190.813 C 204.236 190.801,202.836 192.868,203.155 193.795 C 203.381 194.451,199.202 197.864,197.392 198.502 C 195.141 199.295,188.800 199.498,188.800 198.776 C 188.800 198.543,188.629 198.459,188.420 198.588 C 186.771 199.607,180.658 194.286,179.243 190.600 C 178.737 189.280,178.115 187.767,177.861 187.239 C 177.306 186.082,177.228 175.377,177.765 174.200 C 177.966 173.760,178.162 173.310,178.200 173.200 C 179.314 169.975,180.781 167.379,182.132 166.242 C 184.275 164.439,184.639 164.183,185.800 163.659 C 187.614 162.840,192.832 162.593,195.069 163.219 C 197.107 163.790,197.868 164.284,199.777 166.275 C 201.569 168.142,201.870 168.559,202.205 169.631 C 202.710 171.246,204.695 171.322,206.345 169.789 C 207.878 168.363,204.082 163.689,199.621 161.509 C 196.404 159.938,188.714 159.496,185.000 160.669 M235.200 160.479 C 234.210 160.696,233.040 161.183,232.600 161.563 C 232.160 161.942,231.305 162.560,230.700 162.935 C 230.095 163.311,229.600 163.806,229.600 164.036 C 229.600 164.266,229.164 165.026,228.631 165.727 C 228.099 166.427,227.425 167.765,227.134 168.700 C 226.843 169.635,226.469 170.400,226.303 170.400 C 226.136 170.400,226.000 170.773,226.000 171.229 C 226.000 172.837,224.678 171.943,224.538 170.241 C 224.367 168.154,224.074 165.800,223.985 165.800 C 223.946 165.800,223.708 164.630,223.457 163.200 L 223.000 160.600 221.000 160.600 L 219.000 160.600 218.896 181.091 L 218.793 201.583 219.701 201.811 C 220.201 201.936,221.947 201.985,223.583 201.919 L 226.556 201.800 226.703 193.000 C 226.937 178.956,228.183 173.790,232.420 169.295 C 236.471 164.997,246.877 166.335,247.006 171.171 C 247.009 171.297,247.189 171.670,247.406 172.000 C 247.641 172.357,247.851 178.558,247.927 187.315 L 248.053 202.029 251.727 201.915 L 255.400 201.800 255.516 189.600 C 255.623 178.363,255.219 170.182,254.503 169.057 C 254.343 168.806,254.194 168.510,254.172 168.400 C 252.890 162.100,244.262 158.497,235.200 160.479 M278.833 160.453 C 277.642 160.651,276.422 161.015,276.124 161.263 C 275.825 161.511,275.480 161.614,275.358 161.491 C 275.122 161.255,272.632 162.764,271.566 163.790 C 271.218 164.126,270.723 164.400,270.466 164.400 C 270.210 164.400,270.000 164.546,270.000 164.725 C 270.000 164.903,269.679 165.398,269.287 165.825 C 267.276 168.011,266.421 173.193,267.623 175.908 C 268.167 177.136,270.652 177.151,273.062 175.939 C 273.536 175.701,274.108 175.620,274.334 175.759 C 274.560 175.899,274.858 175.830,274.996 175.607 C 275.134 175.383,275.698 175.200,276.250 175.200 C 278.190 175.200,278.800 174.541,278.800 172.444 C 278.800 167.241,287.175 165.471,290.396 169.994 C 290.868 170.657,291.130 171.200,290.978 171.200 C 290.826 171.200,290.884 171.425,291.107 171.700 C 291.588 172.294,291.678 173.115,291.747 177.569 L 291.800 180.938 284.997 180.840 C 278.482 180.746,272.800 181.458,272.800 182.368 C 272.800 182.517,272.170 182.867,271.400 183.146 C 270.630 183.424,270.000 183.820,270.000 184.026 C 270.000 184.232,269.811 184.400,269.581 184.400 C 267.021 184.400,265.226 193.998,267.347 196.342 C 267.706 196.738,268.000 197.175,268.000 197.311 C 268.000 198.018,272.393 201.624,272.406 200.927 C 272.409 200.747,272.550 200.817,272.719 201.083 C 273.253 201.923,278.344 202.490,281.019 202.007 C 282.329 201.770,283.625 201.552,283.900 201.522 C 284.175 201.491,284.400 201.353,284.400 201.214 C 284.400 201.075,284.997 200.745,285.727 200.481 C 287.307 199.910,289.621 197.833,290.386 196.300 C 290.688 195.695,291.079 195.200,291.255 195.200 C 291.431 195.200,291.480 194.953,291.364 194.652 C 291.249 194.350,291.460 193.986,291.834 193.842 C 292.662 193.525,292.821 193.663,293.009 194.865 C 293.725 199.459,297.135 202.024,302.625 202.100 C 305.560 202.140,306.094 202.024,308.041 200.924 L 310.200 199.704 310.200 197.617 L 310.200 195.529 308.213 195.404 C 304.589 195.175,304.400 194.663,304.400 185.067 C 304.400 174.689,303.954 171.015,302.347 168.168 C 300.644 165.150,296.519 161.232,295.626 161.784 C 295.429 161.906,295.203 161.810,295.124 161.572 C 294.701 160.303,284.116 159.576,278.833 160.453 M339.027 160.633 C 338.161 160.950,337.157 161.477,336.795 161.804 C 336.433 162.132,336.013 162.400,335.861 162.400 C 335.480 162.400,332.800 165.194,332.800 165.592 C 332.800 165.769,332.546 166.012,332.235 166.131 C 331.925 166.250,331.439 166.990,331.155 167.774 C 330.871 168.558,330.495 169.200,330.320 169.200 C 330.144 169.200,330.000 169.442,330.000 169.738 C 330.000 170.533,328.451 171.814,328.025 171.371 C 327.736 171.069,326.913 167.060,326.226 162.600 C 325.895 160.451,325.783 160.400,321.357 160.400 L 317.200 160.400 317.200 181.209 L 317.200 202.018 324.300 201.909 L 331.400 201.800 331.644 192.400 C 332.020 177.871,333.682 173.609,339.070 173.350 C 342.649 173.177,342.568 172.851,342.800 188.390 L 343.000 201.800 351.200 201.800 L 359.400 201.800 359.631 192.725 C 359.796 186.210,360.006 183.474,360.375 183.030 C 360.658 182.689,360.784 182.135,360.655 181.798 C 360.525 181.461,360.667 180.604,360.969 179.893 C 361.272 179.182,361.817 177.880,362.180 177.000 C 363.492 173.826,367.483 172.206,369.656 173.964 L 370.600 174.728 370.800 188.264 L 371.000 201.800 379.200 201.800 L 387.400 201.800 387.519 190.200 C 387.662 176.369,387.278 172.088,385.570 168.475 C 384.351 165.895,384.212 165.687,382.346 163.653 C 379.535 160.589,372.276 159.022,368.165 160.592 C 365.167 161.737,359.894 167.321,360.319 168.900 C 360.364 169.065,360.216 169.200,359.990 169.200 C 359.765 169.200,359.405 169.661,359.191 170.224 C 358.677 171.575,358.225 171.223,356.771 168.343 C 353.390 161.645,345.556 158.241,339.027 160.633 M135.242 162.040 C 138.374 162.992,141.635 166.059,142.413 168.785 C 142.993 170.819,143.357 176.040,143.037 177.744 L 142.764 179.200 129.527 179.200 L 116.290 179.200 116.491 176.699 C 116.999 170.374,123.305 162.000,127.560 162.000 C 127.996 162.000,128.464 161.820,128.600 161.600 C 129.013 160.932,132.314 161.151,135.242 162.040 M291.929 185.748 C 292.000 186.353,291.849 187.100,291.594 187.407 C 291.340 187.714,291.240 188.141,291.373 188.356 C 292.794 190.655,288.027 195.284,283.997 195.518 C 276.493 195.952,276.157 187.751,283.600 185.804 C 285.030 185.430,286.546 184.994,286.969 184.836 C 288.995 184.075,291.793 184.589,291.929 185.748 " stroke="none" fill="#c11032" fill-rule="evenodd"></path><path id="path2" d="M14.800 229.378 L 14.800 248.800 26.771 248.800 C 39.868 248.800,39.302 248.907,38.869 246.500 L 38.707 245.600 28.758 245.600 L 18.808 245.600 18.704 227.900 L 18.600 210.200 16.700 210.078 L 14.800 209.956 14.800 229.378 M62.000 229.200 C 62.000 247.818,62.023 248.400,62.762 248.400 C 63.542 248.400,63.873 247.073,64.083 243.114 C 64.126 242.297,64.237 241.703,64.328 241.795 C 65.208 242.675,65.758 240.353,65.783 235.651 C 65.807 231.130,65.905 230.448,66.713 229.154 L 67.615 227.708 66.608 227.901 L 65.600 228.093 65.600 219.047 L 65.600 210.000 63.800 210.000 L 62.000 210.000 62.000 229.200 M48.100 210.714 C 47.283 210.843,47.200 211.076,47.200 213.250 L 47.200 215.644 49.100 215.522 L 51.000 215.400 51.000 213.229 C 51.000 210.895,50.378 210.356,48.100 210.714 M102.400 222.041 C 101.850 222.237,100.660 222.578,99.756 222.799 C 96.314 223.640,93.445 227.276,93.664 230.522 C 93.828 232.954,96.152 231.687,96.322 229.073 C 96.389 228.043,96.633 227.200,96.865 227.200 C 97.096 227.200,97.188 226.945,97.068 226.634 C 96.659 225.567,99.480 224.600,103.000 224.600 C 109.887 224.600,110.701 225.371,110.886 232.068 L 110.987 235.724 109.732 235.762 C 109.041 235.783,108.560 235.665,108.662 235.500 C 108.764 235.335,107.767 235.200,106.447 235.200 C 105.127 235.200,103.949 235.358,103.830 235.552 C 103.710 235.745,102.770 235.808,101.741 235.692 C 100.027 235.499,99.893 235.545,100.158 236.241 C 100.378 236.819,100.336 236.889,99.980 236.536 C 98.790 235.355,95.064 238.036,93.847 240.950 C 93.150 242.617,93.355 244.400,94.243 244.400 C 94.550 244.400,94.800 244.591,94.800 244.824 C 94.800 245.057,94.597 245.122,94.348 244.968 C 94.071 244.797,93.974 244.904,94.098 245.244 C 94.209 245.550,94.496 245.757,94.736 245.705 C 94.975 245.652,95.068 245.877,94.943 246.205 C 94.799 246.580,94.952 246.800,95.357 246.800 C 95.711 246.800,96.000 246.951,96.000 247.136 C 96.000 247.878,101.453 249.762,101.831 249.150 C 101.957 248.946,102.272 248.812,102.530 248.852 C 103.478 249.001,107.084 247.280,107.366 246.544 C 107.496 246.206,106.924 246.268,105.476 246.748 C 102.662 247.681,99.324 247.312,97.622 245.880 C 96.898 245.271,96.569 244.743,96.818 244.589 C 97.107 244.410,97.094 244.154,96.775 243.770 C 96.478 243.413,96.427 242.811,96.633 242.105 C 96.810 241.497,96.965 240.820,96.978 240.600 C 96.990 240.380,97.227 239.960,97.504 239.668 C 97.781 239.375,97.893 238.951,97.754 238.725 C 97.593 238.465,97.812 238.413,98.350 238.584 C 98.854 238.744,99.200 238.680,99.200 238.427 C 99.200 238.192,99.335 238.038,99.500 238.085 C 99.665 238.132,100.250 237.918,100.800 237.610 C 102.333 236.751,110.790 236.406,110.833 237.200 C 110.962 239.594,110.831 241.194,110.448 241.911 C 109.902 242.930,109.876 243.324,110.372 243.017 C 110.842 242.727,111.229 243.333,112.019 245.600 C 113.021 248.475,118.400 250.329,118.400 247.800 C 118.400 247.250,118.265 246.821,118.100 246.847 C 114.613 247.398,114.329 246.768,114.376 238.582 C 114.434 228.624,114.025 226.821,111.071 223.986 C 109.301 222.288,104.641 221.243,102.400 222.041 M137.405 222.772 C 135.912 223.342,132.608 226.040,132.593 226.702 C 132.590 226.866,132.233 227.407,131.800 227.905 C 131.367 228.403,130.825 229.483,130.595 230.305 C 130.217 231.657,128.435 232.805,128.385 231.728 C 128.377 231.548,128.282 230.770,128.175 230.000 C 128.068 229.230,127.849 227.252,127.690 225.605 C 127.458 223.211,127.260 222.583,126.700 222.476 C 126.045 222.350,126.000 223.177,126.000 235.371 L 126.000 248.400 127.800 248.400 L 129.600 248.400 129.600 242.250 C 129.600 238.868,129.718 235.510,129.862 234.788 C 130.051 233.845,129.995 233.556,129.662 233.761 C 129.408 233.919,129.200 233.857,129.200 233.624 C 129.200 233.391,129.384 233.200,129.610 233.200 C 129.835 233.200,130.200 232.705,130.421 232.100 C 130.876 230.850,132.052 228.425,132.500 227.811 C 133.037 227.075,134.210 225.748,133.851 226.281 C 133.336 227.047,133.880 226.913,135.178 225.953 C 137.100 224.532,141.437 224.976,143.240 226.778 L 144.600 228.137 144.719 238.469 L 144.838 248.800 146.650 248.800 L 148.462 248.800 148.331 238.900 C 148.218 230.380,148.105 228.861,147.520 228.000 C 147.145 227.450,146.814 226.820,146.783 226.600 C 146.557 224.987,144.016 222.800,142.368 222.800 C 141.945 222.800,141.600 222.656,141.600 222.480 C 141.600 221.949,139.106 222.123,137.405 222.772 M74.164 222.777 C 72.452 223.187,69.873 224.506,69.702 225.060 C 69.602 225.385,70.006 225.361,71.080 224.977 C 72.978 224.300,74.931 224.267,77.000 224.875 C 77.880 225.134,78.757 225.305,78.949 225.256 C 79.141 225.207,79.192 225.445,79.062 225.784 C 78.847 226.343,79.251 226.590,80.130 226.437 C 80.311 226.406,80.342 226.571,80.198 226.803 C 80.054 227.036,80.345 227.895,80.843 228.713 C 84.184 234.190,81.108 245.799,76.103 246.604 C 75.276 246.737,74.206 246.926,73.725 247.025 C 73.243 247.123,72.730 247.010,72.584 246.774 C 72.438 246.538,72.087 246.435,71.803 246.543 C 71.520 246.652,70.927 246.405,70.486 245.995 C 69.329 244.916,69.111 245.463,70.221 246.661 C 70.737 247.217,71.348 247.556,71.579 247.413 C 71.811 247.270,72.000 247.336,72.000 247.561 C 72.000 248.214,75.236 248.904,77.099 248.648 C 79.044 248.382,80.919 247.316,80.535 246.694 C 80.391 246.462,80.467 246.394,80.706 246.542 C 80.943 246.688,81.486 246.362,81.915 245.817 C 82.343 245.273,82.836 244.956,83.011 245.114 C 83.185 245.271,83.220 245.100,83.089 244.733 C 82.941 244.320,83.103 243.969,83.514 243.812 C 84.086 243.592,84.096 243.506,83.589 243.185 C 83.074 242.859,83.075 242.811,83.602 242.806 C 84.194 242.800,84.825 241.385,85.656 238.200 C 86.103 236.486,85.850 231.803,85.270 231.054 C 85.077 230.804,84.592 229.672,84.194 228.538 C 83.696 227.122,83.296 226.542,82.918 226.687 C 82.615 226.803,82.420 226.709,82.484 226.477 C 82.697 225.703,80.095 223.355,78.492 222.875 C 76.749 222.353,76.011 222.336,74.164 222.777 M47.600 235.800 L 47.600 248.800 49.400 248.800 L 51.200 248.800 51.200 235.800 L 51.200 222.800 49.400 222.800 L 47.600 222.800 47.600 235.800 " stroke="none" fill="#7f7f7f" fill-rule="evenodd"></path><path id="path3" d="M14.496 229.500 L 14.400 249.200 26.800 249.200 L 39.200 249.200 39.154 248.300 C 39.119 247.623,39.062 247.573,38.924 248.100 C 38.755 248.747,37.835 248.800,26.774 248.800 L 14.808 248.800 14.700 229.300 L 14.592 209.800 14.496 229.500 M65.692 218.900 C 65.602 227.764,65.621 228.000,66.400 228.000 C 67.383 228.000,67.403 228.335,66.500 229.611 C 65.924 230.424,65.796 231.512,65.778 235.728 C 65.762 239.465,65.616 240.943,65.240 241.175 C 64.878 241.399,65.040 241.573,65.778 241.759 C 66.358 241.904,66.743 242.168,66.634 242.345 C 66.525 242.522,66.694 242.667,67.011 242.667 C 67.436 242.667,67.475 242.531,67.159 242.151 C 66.924 241.867,66.838 241.463,66.968 241.252 C 67.098 241.041,66.979 240.793,66.702 240.701 C 65.793 240.398,66.022 231.238,66.975 229.783 C 67.402 229.132,67.984 228.150,68.270 227.600 C 68.555 227.050,68.926 226.595,69.094 226.590 C 69.262 226.584,69.872 226.263,70.449 225.877 C 72.017 224.828,75.100 224.580,76.955 225.355 C 78.745 226.103,79.200 226.153,79.200 225.600 C 79.200 225.380,79.065 225.233,78.900 225.273 C 78.735 225.313,77.880 225.134,77.000 224.875 C 74.937 224.268,72.979 224.300,71.100 224.970 C 69.636 225.493,69.292 225.374,69.900 224.556 C 70.065 224.334,69.451 224.928,68.535 225.876 C 65.998 228.502,66.028 228.583,65.900 218.700 L 65.784 209.800 65.692 218.900 M46.882 213.096 C 46.972 215.149,47.143 215.802,47.600 215.834 C 47.946 215.859,47.988 215.806,47.700 215.709 C 46.697 215.372,47.054 210.884,48.100 210.682 C 48.859 210.536,48.825 210.500,47.882 210.454 L 46.763 210.400 46.882 213.096 M49.200 210.553 C 49.200 210.638,49.650 210.793,50.200 210.898 C 50.750 211.003,51.200 210.934,51.200 210.745 C 51.200 210.555,50.750 210.400,50.200 210.400 C 49.650 210.400,49.200 210.469,49.200 210.553 M100.931 222.018 C 98.847 222.430,96.927 223.385,95.500 224.721 C 93.635 226.465,94.287 226.568,96.251 224.839 C 97.927 223.364,99.997 222.418,101.600 222.396 C 101.930 222.392,102.470 222.213,102.800 222.000 C 103.486 221.557,103.251 221.559,100.931 222.018 M107.200 222.056 C 107.750 222.308,108.884 222.831,109.720 223.217 C 110.556 223.603,111.176 223.727,111.097 223.492 C 110.962 223.086,109.375 222.419,107.200 221.855 L 106.200 221.596 107.200 222.056 M73.500 222.481 C 72.675 222.700,72.000 223.048,72.000 223.254 C 72.000 223.460,72.397 223.416,72.883 223.156 C 74.247 222.425,78.000 222.497,79.528 223.283 C 80.258 223.659,80.792 223.775,80.714 223.541 C 80.313 222.339,76.272 221.745,73.500 222.481 M125.695 235.300 L 125.800 248.600 127.703 248.637 L 129.605 248.674 127.803 248.515 L 126.000 248.356 126.000 235.331 C 126.000 222.501,126.012 222.310,126.801 222.516 C 127.241 222.631,127.500 222.562,127.377 222.363 C 127.254 222.163,126.801 222.000,126.371 222.000 C 125.609 222.000,125.592 222.334,125.695 235.300 M136.181 222.746 C 134.085 224.025,130.803 228.040,130.334 229.900 C 129.587 232.861,128.420 231.423,128.404 227.524 C 128.402 226.932,128.231 226.343,128.024 226.215 C 127.805 226.080,127.723 226.531,127.828 227.291 C 128.246 230.321,128.336 231.028,128.367 231.547 C 128.389 231.909,128.736 232.029,129.400 231.902 C 130.512 231.689,130.847 232.654,129.800 233.055 C 129.470 233.182,129.200 233.453,129.200 233.657 C 129.200 233.866,129.549 233.841,130.000 233.600 C 130.440 233.365,130.800 232.901,130.800 232.570 C 130.800 232.239,131.165 231.300,131.612 230.484 C 132.059 229.668,132.867 228.190,133.408 227.200 C 134.121 225.894,134.181 225.649,133.625 226.309 C 133.203 226.808,132.761 227.061,132.644 226.871 C 132.305 226.322,135.780 223.335,137.365 222.812 C 138.154 222.551,138.800 222.262,138.800 222.169 C 138.800 221.740,137.282 222.075,136.181 222.746 M141.600 222.373 C 141.600 222.608,141.966 222.800,142.414 222.800 C 142.862 222.800,143.672 223.091,144.214 223.446 C 144.756 223.801,145.200 224.002,145.200 223.892 C 145.200 223.588,143.515 222.552,142.500 222.231 C 141.951 222.057,141.600 222.113,141.600 222.373 M47.382 222.903 C 47.275 223.180,47.236 229.165,47.294 236.203 L 47.400 249.000 49.303 249.037 L 51.205 249.074 49.403 248.915 L 47.600 248.756 47.600 235.800 L 47.600 222.844 49.500 222.694 L 51.400 222.544 49.487 222.472 C 48.262 222.426,47.505 222.581,47.382 222.903 M81.934 225.330 C 82.414 225.841,82.686 226.381,82.537 226.530 C 82.388 226.678,82.477 226.800,82.733 226.800 C 82.990 226.800,83.200 226.660,83.200 226.489 C 83.200 225.926,81.964 224.400,81.508 224.400 C 81.262 224.400,81.454 224.818,81.934 225.330 M146.276 225.460 C 146.658 226.043,147.010 226.787,147.058 227.112 C 147.105 227.438,147.357 227.906,147.617 228.152 C 148.340 228.837,147.665 226.841,146.720 225.500 C 145.728 224.091,145.358 224.058,146.276 225.460 M107.800 225.245 C 108.240 225.500,109.045 226.090,109.588 226.555 C 110.502 227.336,110.532 227.340,109.988 226.602 C 109.039 225.313,108.647 225.006,107.800 224.890 L 107.000 224.780 107.800 225.245 M97.476 225.774 C 97.019 226.121,96.908 226.420,97.176 226.585 C 97.409 226.729,97.600 226.684,97.600 226.485 C 97.600 226.285,98.005 225.927,98.500 225.688 C 99.043 225.426,99.162 225.248,98.800 225.240 C 98.470 225.232,97.874 225.472,97.476 225.774 M135.376 225.833 C 134.611 226.456,134.612 226.460,135.400 226.133 C 136.824 225.540,141.993 225.743,142.413 226.408 C 142.675 226.822,142.790 226.847,142.794 226.490 C 142.810 225.185,136.823 224.654,135.376 225.833 M79.005 226.718 C 81.764 228.689,82.516 237.952,80.274 242.355 C 79.129 244.606,79.036 245.521,80.120 243.865 C 82.302 240.535,82.720 231.790,80.843 228.713 C 80.345 227.895,80.028 227.078,80.141 226.896 C 80.253 226.715,79.954 226.537,79.477 226.501 C 79.000 226.465,78.788 226.562,79.005 226.718 M84.354 228.982 C 85.154 231.090,85.722 231.820,85.232 230.110 C 84.869 228.846,84.073 227.200,83.825 227.200 C 83.744 227.200,83.982 228.002,84.354 228.982 M96.339 229.181 C 96.262 230.270,96.317 231.035,96.459 230.881 C 96.822 230.488,97.081 227.200,96.749 227.200 C 96.600 227.200,96.415 228.091,96.339 229.181 M132.588 227.922 C 132.375 228.075,131.780 229.010,131.266 230.000 C 130.738 231.018,130.432 231.366,130.561 230.800 C 130.686 230.250,130.792 229.609,130.795 229.375 C 130.802 228.768,132.432 227.099,132.729 227.395 C 132.865 227.532,132.802 227.769,132.588 227.922 M143.841 227.600 C 144.039 227.930,144.290 232.880,144.400 238.600 L 144.600 249.000 146.400 249.033 L 148.200 249.065 146.519 248.912 L 144.838 248.758 144.719 238.398 C 144.624 230.161,144.486 227.932,144.041 227.519 C 143.577 227.088,143.543 227.102,143.841 227.600 M114.037 229.268 C 114.224 230.221,114.369 234.279,114.358 238.288 C 114.338 245.489,114.440 246.400,115.273 246.400 C 115.565 246.400,115.570 246.244,115.288 245.900 C 115.047 245.606,114.821 241.902,114.739 236.920 C 114.647 231.323,114.446 228.286,114.148 227.988 C 113.812 227.652,113.783 227.980,114.037 229.268 M93.467 228.267 C 93.076 228.657,93.141 231.916,93.544 232.166 C 94.119 232.521,94.423 231.909,93.952 231.342 C 93.710 231.050,93.585 230.179,93.675 229.406 C 93.854 227.874,93.855 227.878,93.467 228.267 M95.885 237.590 C 94.958 238.464,94.328 239.184,94.484 239.190 C 94.640 239.195,95.226 238.705,95.787 238.101 C 96.347 237.497,97.389 236.790,98.103 236.532 C 99.183 236.140,99.247 236.056,98.485 236.030 C 97.938 236.012,96.891 236.640,95.885 237.590 M106.200 236.786 C 103.611 236.936,101.388 237.274,100.800 237.606 C 100.250 237.916,99.665 238.132,99.500 238.085 C 99.335 238.038,99.200 238.192,99.200 238.427 C 99.200 238.680,98.854 238.744,98.350 238.584 C 97.812 238.413,97.593 238.465,97.754 238.725 C 97.893 238.951,97.781 239.375,97.504 239.668 C 97.043 240.154,96.692 241.600,97.034 241.600 C 97.114 241.600,97.438 241.100,97.754 240.489 C 99.024 238.034,108.522 235.875,110.571 237.576 C 111.034 237.960,111.098 237.896,110.922 237.223 C 110.804 236.770,110.683 236.429,110.653 236.465 C 110.624 236.501,108.620 236.645,106.200 236.786 M84.865 240.617 C 84.609 241.178,84.400 241.899,84.400 242.219 C 84.400 242.538,84.085 242.803,83.700 242.806 C 83.150 242.811,83.117 242.886,83.548 243.159 C 83.990 243.440,83.952 243.590,83.348 243.941 C 82.937 244.180,82.803 244.381,83.051 244.388 C 83.717 244.406,84.263 243.609,84.951 241.612 C 85.634 239.629,85.583 239.041,84.865 240.617 M93.370 241.009 C 92.667 242.693,93.072 244.876,94.116 245.029 C 94.492 245.084,94.800 244.965,94.800 244.765 C 94.800 244.564,94.550 244.400,94.243 244.400 C 93.374 244.400,93.145 242.630,93.808 241.042 C 94.140 240.249,94.309 239.600,94.185 239.600 C 94.061 239.600,93.694 240.234,93.370 241.009 M110.631 240.700 C 110.285 241.044,109.131 243.707,109.208 243.984 C 109.236 244.086,108.931 244.298,108.530 244.456 C 107.957 244.682,107.936 244.750,108.430 244.772 C 108.777 244.787,109.497 244.321,110.030 243.735 C 110.564 243.150,110.775 242.801,110.500 242.959 C 109.843 243.338,109.869 243.013,110.610 241.580 C 111.213 240.415,111.220 240.115,110.631 240.700 M64.082 243.126 C 63.866 247.222,63.552 248.399,62.662 248.446 C 61.925 248.486,61.908 248.521,62.542 248.684 C 62.951 248.789,63.458 248.702,63.670 248.490 C 64.110 248.050,64.768 242.028,64.401 241.801 C 64.269 241.719,64.125 242.315,64.082 243.126 M96.406 242.620 C 96.403 243.071,96.596 243.636,96.835 243.875 C 97.148 244.188,97.148 244.385,96.833 244.579 C 96.220 244.958,98.369 246.689,99.827 246.991 C 100.976 247.229,100.972 247.219,99.628 246.517 C 98.391 245.871,96.724 243.732,97.027 243.181 C 97.093 243.060,96.982 242.700,96.780 242.381 C 96.487 241.918,96.411 241.966,96.406 242.620 M67.286 243.854 C 67.375 244.264,67.675 244.551,67.953 244.490 C 68.232 244.430,68.363 244.536,68.245 244.727 C 68.128 244.917,68.677 245.687,69.466 246.437 C 70.545 247.463,70.785 247.577,70.436 246.900 C 69.979 246.014,70.488 245.572,71.004 246.407 C 71.142 246.630,71.431 246.705,71.645 246.572 C 71.860 246.440,72.252 246.509,72.518 246.725 C 73.085 247.189,76.814 246.684,77.889 245.998 C 78.498 245.610,78.456 245.581,77.600 245.798 C 75.169 246.413,73.304 246.440,71.700 245.884 C 70.765 245.559,70.000 245.453,70.000 245.647 C 70.000 245.841,69.826 246.000,69.613 246.000 C 69.399 246.000,69.338 245.685,69.476 245.300 C 69.614 244.915,69.580 244.734,69.399 244.898 C 69.219 245.061,68.875 244.806,68.636 244.329 C 68.065 243.195,67.066 242.844,67.286 243.854 M111.218 244.054 C 111.208 244.414,111.463 245.314,111.784 246.054 C 112.540 247.794,112.558 247.073,111.812 245.000 C 111.495 244.120,111.227 243.694,111.218 244.054 M81.875 245.847 C 81.476 246.380,81.011 246.731,80.842 246.626 C 80.672 246.521,80.533 246.709,80.533 247.043 C 80.533 247.454,80.926 247.258,81.746 246.438 C 82.413 245.771,82.878 245.148,82.779 245.052 C 82.681 244.956,82.274 245.314,81.875 245.847 M28.673 245.500 C 38.737 245.614,38.746 245.614,38.919 246.507 C 39.065 247.264,39.099 247.233,39.146 246.300 L 39.200 245.200 28.900 245.293 L 18.600 245.386 28.673 245.500 M105.800 246.089 C 103.568 246.941,102.280 247.879,104.317 247.169 C 105.342 246.812,105.763 246.831,106.308 247.258 C 106.922 247.739,106.943 247.727,106.492 247.149 C 106.063 246.601,106.106 246.466,106.762 246.294 C 107.351 246.140,107.485 246.250,107.313 246.745 C 107.114 247.321,107.176 247.316,107.826 246.703 C 109.033 245.565,107.996 245.251,105.800 246.089 M95.656 247.566 C 96.175 247.987,96.666 248.265,96.748 248.185 C 96.989 247.945,95.697 246.800,95.184 246.800 C 94.924 246.800,95.136 247.145,95.656 247.566 M71.423 247.563 C 70.502 249.052,78.198 249.636,79.530 248.178 C 79.983 247.682,80.005 247.584,79.600 247.876 C 78.007 249.022,73.416 248.958,72.230 247.773 C 71.912 247.455,71.548 247.360,71.423 247.563 M105.416 247.973 C 105.271 248.208,104.814 248.400,104.400 248.400 C 103.986 248.400,103.532 248.587,103.390 248.816 C 103.222 249.088,103.524 249.140,104.266 248.964 C 105.530 248.666,106.268 248.135,105.913 247.780 C 105.785 247.652,105.561 247.739,105.416 247.973 M97.641 248.580 C 97.948 248.870,98.920 249.212,99.800 249.340 C 101.462 249.583,101.267 249.454,98.641 248.575 C 97.350 248.143,97.178 248.144,97.641 248.580 M114.400 248.558 C 114.950 248.896,116.120 249.154,117.000 249.132 L 118.600 249.093 116.800 248.808 C 115.810 248.651,114.640 248.393,114.200 248.234 C 113.688 248.049,113.760 248.165,114.400 248.558 " stroke="none" fill="#8f8f8f" fill-rule="evenodd"></path><path id="path4" d="M95.297 174.900 L 95.394 201.800 95.500 175.100 L 95.606 148.400 97.200 148.400 L 98.794 148.400 98.900 174.900 L 99.006 201.400 99.103 174.700 L 99.200 148.000 97.200 148.000 L 95.200 148.000 95.297 174.900 M125.604 160.243 C 124.395 160.567,123.225 161.030,123.004 161.271 C 122.715 161.584,122.885 161.626,123.600 161.418 C 127.756 160.208,128.903 160.000,131.415 160.000 C 132.977 160.000,135.232 160.303,136.427 160.674 C 137.622 161.044,138.690 161.364,138.800 161.384 C 140.199 161.640,143.715 165.072,144.842 167.282 C 145.290 168.160,145.746 168.788,145.856 168.678 C 146.348 168.185,144.219 165.103,141.997 163.092 C 138.320 159.765,131.678 158.611,125.604 160.243 M184.196 160.513 C 179.310 162.376,175.025 166.313,173.701 170.158 C 173.391 171.057,172.992 171.975,172.815 172.197 C 171.033 174.429,171.278 187.827,173.128 189.274 C 173.727 189.743,173.742 189.726,173.266 189.118 C 172.972 188.742,172.838 188.263,172.968 188.052 C 173.098 187.841,172.988 187.596,172.723 187.508 C 172.044 187.281,171.785 177.962,172.393 175.600 C 172.648 174.610,172.909 173.530,172.974 173.200 C 173.494 170.561,178.188 163.600,179.449 163.600 C 179.563 163.600,180.409 163.082,181.330 162.448 C 187.467 158.225,198.780 159.328,204.121 164.669 C 205.155 165.702,206.000 166.356,206.000 166.122 C 206.000 165.188,202.799 162.482,200.177 161.200 C 196.373 159.339,188.196 158.988,184.196 160.513 M235.135 160.027 C 231.698 160.839,228.044 164.430,226.791 168.227 C 225.754 171.370,225.205 172.025,225.202 170.124 C 225.201 169.202,225.013 168.331,224.784 168.190 C 224.510 168.021,224.418 168.597,224.513 169.866 C 224.664 171.872,226.000 173.097,226.000 171.229 C 226.000 170.773,226.136 170.400,226.303 170.400 C 226.469 170.400,226.843 169.635,227.134 168.700 C 227.425 167.765,228.099 166.427,228.631 165.727 C 229.164 165.026,229.600 164.266,229.600 164.036 C 229.600 163.806,230.095 163.311,230.700 162.935 C 231.305 162.560,232.160 161.945,232.600 161.570 C 234.309 160.112,241.971 159.477,245.903 160.468 C 249.057 161.262,253.600 165.205,253.600 167.148 C 253.600 167.371,253.780 167.664,254.000 167.800 C 254.777 168.280,254.382 167.331,252.777 164.861 C 251.884 163.487,250.714 162.195,250.177 161.991 C 249.639 161.787,249.200 161.459,249.200 161.263 C 249.200 159.984,239.078 159.095,235.135 160.027 M278.749 160.007 C 277.730 160.179,276.470 160.548,275.949 160.827 C 275.427 161.107,274.954 161.302,274.897 161.262 C 274.642 161.081,270.800 163.254,270.800 163.580 C 270.800 163.781,270.485 164.048,270.100 164.172 C 269.715 164.297,269.192 164.849,268.938 165.399 C 268.336 166.702,268.903 166.702,269.600 165.400 C 269.894 164.850,270.366 164.400,270.648 164.400 C 270.930 164.400,271.304 164.154,271.480 163.854 C 271.793 163.320,274.273 161.879,274.513 162.092 C 274.580 162.151,275.106 161.892,275.681 161.515 C 277.938 160.036,287.354 159.504,292.338 160.572 C 293.735 160.872,294.725 160.975,294.538 160.801 C 293.396 159.735,283.348 159.230,278.749 160.007 M339.229 160.066 C 336.046 160.980,332.018 164.816,329.952 168.900 C 328.365 172.038,328.230 171.900,327.403 166.300 C 326.422 159.663,326.749 160.000,321.304 160.000 C 318.827 160.000,316.800 160.135,316.799 160.300 C 316.799 160.465,318.720 160.543,321.068 160.473 C 325.641 160.337,325.982 160.477,326.248 162.596 C 326.629 165.626,327.730 171.064,328.025 171.371 C 328.451 171.814,330.000 170.533,330.000 169.738 C 330.000 169.442,330.144 169.200,330.320 169.200 C 330.495 169.200,330.871 168.558,331.155 167.774 C 331.439 166.990,331.925 166.250,332.235 166.131 C 332.546 166.012,332.800 165.769,332.800 165.592 C 332.800 165.204,335.151 162.807,336.232 162.092 C 339.512 159.922,345.074 159.328,348.700 160.759 C 351.214 161.752,351.506 161.482,349.100 160.389 C 347.208 159.530,341.719 159.351,339.229 160.066 M367.400 160.325 C 364.735 161.590,360.959 165.707,358.982 169.503 C 358.537 170.358,358.412 170.236,356.667 167.232 C 355.653 165.487,354.216 163.595,353.474 163.029 C 351.316 161.384,351.350 161.835,353.546 163.985 C 354.661 165.077,356.115 167.044,356.778 168.356 C 358.225 171.223,358.678 171.574,359.191 170.224 C 359.405 169.661,359.765 169.200,359.990 169.200 C 360.216 169.200,360.364 169.065,360.319 168.900 C 359.894 167.321,365.167 161.737,368.165 160.592 C 372.276 159.022,379.535 160.589,382.346 163.653 C 384.212 165.687,384.351 165.895,385.570 168.475 C 387.278 172.088,387.662 176.369,387.519 190.200 L 387.400 201.800 379.200 201.800 L 371.000 201.800 370.800 188.264 L 370.600 174.728 369.656 173.964 C 367.483 172.206,363.492 173.826,362.180 177.000 C 361.817 177.880,361.260 179.207,360.942 179.950 C 360.625 180.692,360.438 181.371,360.526 181.459 C 360.848 181.782,361.507 180.545,362.188 178.337 C 363.358 174.546,367.511 172.314,369.438 174.441 C 370.147 175.224,370.214 176.227,370.400 188.741 L 370.600 202.200 379.300 202.308 L 388.000 202.416 388.000 189.897 C 388.000 178.271,387.586 171.206,386.845 170.213 C 386.676 169.986,386.215 168.928,385.821 167.861 C 384.953 165.515,381.251 161.579,378.979 160.589 C 376.492 159.505,369.466 159.345,367.400 160.325 M218.591 160.480 C 218.482 160.766,218.439 170.270,218.496 181.600 L 218.600 202.200 222.700 202.314 C 224.955 202.377,226.800 202.287,226.801 202.114 C 226.801 201.941,225.000 201.857,222.797 201.927 L 218.793 202.053 218.896 181.327 L 219.000 160.600 221.000 160.600 L 223.000 160.600 223.400 163.069 C 223.620 164.427,223.927 165.664,224.083 165.818 C 224.357 166.091,224.185 164.468,223.636 161.600 C 223.344 160.076,219.106 159.135,218.591 160.480 M128.662 161.500 C 128.560 161.665,129.314 161.746,130.338 161.680 C 133.259 161.493,133.614 161.297,131.124 161.246 C 129.872 161.221,128.764 161.335,128.662 161.500 M316.986 181.200 C 316.986 192.310,317.037 196.855,317.100 191.300 C 317.162 185.745,317.162 176.655,317.100 171.100 C 317.037 165.545,316.986 170.090,316.986 181.200 M120.136 162.747 C 116.702 165.235,113.662 169.782,113.015 173.400 C 112.857 174.280,112.589 175.180,112.418 175.400 C 111.001 177.224,112.152 188.440,114.153 192.309 C 115.071 194.084,115.357 193.937,114.561 192.100 C 114.204 191.275,113.745 189.902,113.542 189.048 C 113.339 188.195,112.985 187.146,112.756 186.717 C 112.048 185.394,112.241 177.180,113.037 174.740 C 114.527 170.175,114.921 169.200,115.278 169.200 C 115.481 169.200,115.548 169.040,115.428 168.845 C 115.184 168.450,120.024 163.310,121.600 162.290 C 122.150 161.933,122.402 161.633,122.160 161.621 C 121.918 161.609,121.007 162.116,120.136 162.747 M297.200 162.426 C 299.546 164.302,301.266 166.161,302.015 167.629 C 303.033 169.624,303.400 169.669,302.604 167.700 C 301.976 166.145,297.550 161.590,296.689 161.613 C 296.420 161.621,296.650 161.986,297.200 162.426 M125.171 162.791 C 123.696 163.571,121.833 165.202,120.821 166.600 C 120.503 167.040,121.133 166.553,122.221 165.518 C 123.309 164.484,124.875 163.356,125.700 163.013 C 126.525 162.670,127.200 162.302,127.200 162.195 C 127.200 161.851,126.634 162.017,125.171 162.791 M135.200 162.223 C 135.200 162.314,135.867 162.668,136.683 163.009 C 137.498 163.349,138.651 164.207,139.244 164.914 C 139.837 165.621,140.426 166.098,140.554 165.974 C 140.969 165.569,137.789 162.798,136.477 162.422 C 135.775 162.221,135.200 162.131,135.200 162.223 M187.800 163.069 C 184.023 163.900,181.353 166.221,179.368 170.400 C 179.002 171.170,178.543 172.115,178.348 172.500 C 178.153 172.885,178.142 173.200,178.323 173.200 C 178.504 173.200,179.046 172.255,179.526 171.100 C 182.005 165.141,188.229 162.072,194.691 163.622 C 197.376 164.266,201.178 167.645,201.827 169.962 C 202.290 171.615,205.638 171.736,207.540 170.169 C 207.769 169.980,206.771 167.229,206.387 166.992 C 206.192 166.871,206.228 167.334,206.467 168.021 C 206.972 169.470,206.566 170.041,204.558 170.707 C 203.109 171.187,202.621 170.963,202.205 169.631 C 201.870 168.559,201.569 168.142,199.777 166.275 C 197.938 164.356,197.158 163.831,195.354 163.292 C 193.782 162.822,189.496 162.696,187.800 163.069 M235.120 167.375 C 231.179 169.332,227.661 175.935,227.009 182.600 C 226.945 183.260,226.767 184.160,226.613 184.600 C 226.339 185.389,226.344 185.389,226.967 184.624 C 227.315 184.196,227.600 183.364,227.600 182.773 C 227.600 177.173,231.556 169.529,235.285 167.925 C 236.338 167.472,237.200 166.944,237.200 166.751 C 237.200 166.314,237.349 166.269,235.120 167.375 M241.822 166.764 C 241.722 166.927,242.439 167.448,243.415 167.922 C 244.797 168.594,245.433 169.253,246.280 170.893 L 247.369 173.000 247.511 187.714 L 247.653 202.427 251.727 202.314 L 255.800 202.200 255.908 189.400 C 256.027 175.441,255.652 169.841,254.534 168.826 C 253.907 168.257,253.887 168.258,254.316 168.834 C 255.206 170.028,255.632 177.401,255.516 189.600 L 255.400 201.800 251.727 201.915 L 248.053 202.029 247.927 187.276 C 247.837 176.802,247.665 172.359,247.334 171.961 C 247.078 171.652,246.845 171.220,246.817 171.000 C 246.625 169.492,242.367 165.882,241.822 166.764 M141.200 166.876 C 141.201 167.246,142.765 170.935,142.779 170.600 C 142.812 169.798,141.960 167.223,141.585 166.991 C 141.373 166.860,141.200 166.808,141.200 166.876 M267.643 167.348 C 266.853 168.300,266.410 172.203,266.811 174.671 C 267.184 176.962,268.000 178.533,268.000 176.960 C 268.000 176.520,267.804 175.964,267.565 175.725 C 266.886 175.046,267.028 169.827,267.766 168.347 C 268.459 166.959,268.395 166.442,267.643 167.348 M119.658 168.131 C 119.117 168.781,117.916 171.600,118.179 171.600 C 118.283 171.600,118.800 170.700,119.326 169.600 C 120.329 167.505,120.385 167.254,119.658 168.131 M281.422 168.076 C 279.599 169.133,278.800 170.465,278.800 172.444 C 278.800 174.541,278.190 175.200,276.250 175.200 C 275.698 175.200,275.124 175.399,274.974 175.643 C 274.796 175.930,274.964 176.008,275.450 175.864 C 275.862 175.742,276.875 175.523,277.700 175.377 L 279.200 175.111 279.200 173.044 C 279.200 167.159,287.884 165.719,290.358 171.193 C 291.145 172.934,292.096 173.870,291.500 172.317 C 291.391 172.033,291.259 171.620,291.207 171.400 C 290.500 168.418,284.402 166.347,281.422 168.076 M146.182 170.330 C 146.238 171.038,146.399 171.733,146.542 171.875 C 147.308 172.641,146.665 181.255,145.849 181.158 C 145.602 181.129,138.875 181.127,130.900 181.153 L 116.400 181.200 116.400 183.180 C 116.400 185.482,117.126 189.200,117.575 189.200 C 117.744 189.200,117.639 188.261,117.341 187.113 C 117.044 185.965,116.800 184.255,116.800 183.313 L 116.800 181.600 131.610 181.600 L 146.420 181.600 146.844 180.500 C 147.381 179.111,147.138 170.875,146.530 169.822 C 146.136 169.140,146.093 169.203,146.182 170.330 M303.667 171.051 C 303.890 171.903,304.168 177.250,304.284 182.933 C 304.532 195.029,304.578 195.176,308.213 195.402 L 310.200 195.525 310.308 197.663 L 310.415 199.800 308.008 200.986 C 303.295 203.309,296.369 201.960,294.275 198.312 C 293.890 197.641,293.466 197.201,293.332 197.335 C 292.878 197.788,295.159 200.300,297.009 201.384 C 300.008 203.141,305.903 203.059,308.770 201.219 L 310.835 199.894 310.718 197.447 C 310.606 195.115,310.553 195.003,309.600 195.065 C 305.166 195.352,304.802 194.521,304.792 184.074 C 304.784 175.991,304.338 170.578,303.620 169.860 C 303.423 169.663,303.445 170.199,303.667 171.051 M117.148 173.100 C 116.911 173.705,116.620 175.325,116.503 176.700 L 116.290 179.200 129.499 179.200 L 142.707 179.200 142.937 178.317 C 143.064 177.832,143.078 177.345,142.968 177.235 C 142.858 177.125,142.664 177.432,142.537 177.917 L 142.307 178.800 129.553 178.800 L 116.800 178.800 116.800 177.487 C 116.800 176.765,117.044 175.235,117.341 174.087 C 117.929 171.821,117.837 171.347,117.148 173.100 M335.927 174.400 C 332.730 177.035,331.958 180.279,331.644 192.400 L 331.400 201.800 324.100 201.800 C 320.085 201.800,316.800 201.939,316.800 202.109 C 316.800 202.279,320.175 202.369,324.300 202.309 L 331.800 202.200 332.072 192.600 C 332.417 180.451,333.459 176.152,336.475 174.437 C 337.091 174.087,337.596 173.665,337.597 173.500 C 337.601 173.048,337.501 173.102,335.927 174.400 M341.078 174.165 L 342.200 175.130 342.320 188.773 L 342.440 202.415 351.120 202.308 L 359.800 202.200 360.050 193.200 C 360.188 188.250,360.439 183.840,360.609 183.400 C 360.860 182.750,360.819 182.692,360.390 183.089 C 359.998 183.452,359.804 185.903,359.631 192.689 L 359.400 201.800 351.120 201.908 L 342.840 202.016 342.720 188.508 C 342.592 174.138,342.456 173.200,340.489 173.200 C 340.195 173.200,340.460 173.634,341.078 174.165 M177.709 174.243 C 177.208 175.469,177.332 186.692,177.852 187.212 C 178.188 187.548,178.219 187.220,177.970 185.932 C 177.543 183.726,177.549 178.393,177.981 175.800 C 178.335 173.671,178.218 172.998,177.709 174.243 M291.499 177.000 L 291.701 180.600 285.350 180.462 C 275.134 180.241,271.324 181.339,267.805 185.521 C 266.790 186.728,265.692 189.437,266.395 189.003 C 266.584 188.886,266.851 188.298,266.988 187.695 C 267.262 186.498,268.912 184.400,269.581 184.400 C 269.811 184.400,270.000 184.232,270.000 184.026 C 270.000 183.820,270.630 183.424,271.400 183.146 C 272.170 182.867,272.800 182.517,272.800 182.368 C 272.800 181.457,278.481 180.746,284.997 180.842 L 291.800 180.943 291.916 178.149 C 291.980 176.613,291.867 174.916,291.665 174.378 C 291.418 173.721,291.364 174.581,291.499 177.000 M273.017 175.972 C 272.891 176.177,271.800 176.467,270.594 176.618 C 269.387 176.769,268.400 177.064,268.400 177.273 C 268.400 177.483,268.715 177.554,269.100 177.433 C 269.485 177.311,270.671 177.049,271.735 176.851 C 273.686 176.487,275.225 175.600,273.904 175.600 C 273.543 175.600,273.144 175.767,273.017 175.972 M291.400 186.000 C 291.400 186.838,291.535 187.440,291.700 187.338 C 291.865 187.236,292.000 186.634,292.000 186.000 C 292.000 185.366,291.865 184.764,291.700 184.662 C 291.535 184.560,291.400 185.162,291.400 186.000 M283.000 185.879 C 278.880 187.144,276.964 191.825,279.520 194.382 C 281.128 195.990,287.373 196.082,287.898 194.506 C 288.001 194.196,287.624 194.249,286.797 194.661 C 285.113 195.501,280.684 195.255,279.695 194.266 C 277.360 191.931,279.501 187.351,283.466 186.198 C 284.640 185.857,285.600 185.493,285.600 185.389 C 285.600 185.121,285.258 185.185,283.000 185.879 M178.400 188.643 C 178.400 191.651,186.768 200.165,188.259 198.674 C 188.354 198.580,187.604 198.114,186.593 197.639 C 183.765 196.309,181.228 193.743,179.932 190.900 C 178.917 188.674,178.400 187.912,178.400 188.643 M266.060 191.400 C 265.878 198.475,270.448 202.526,278.642 202.553 C 284.672 202.573,287.943 200.844,291.268 195.879 L 292.336 194.284 292.468 195.411 C 292.541 196.031,292.842 196.618,293.139 196.715 C 293.570 196.857,293.586 196.722,293.220 196.038 C 292.969 195.568,292.849 195.044,292.955 194.873 C 293.061 194.702,293.010 194.339,292.842 194.067 C 292.437 193.412,291.093 193.944,291.364 194.652 C 291.480 194.953,291.431 195.200,291.255 195.200 C 291.079 195.200,290.688 195.695,290.386 196.300 C 289.621 197.833,287.307 199.910,285.727 200.481 C 284.997 200.745,284.400 201.075,284.400 201.214 C 284.400 201.353,284.175 201.491,283.900 201.522 C 283.625 201.552,282.329 201.770,281.019 202.007 C 278.344 202.490,273.253 201.923,272.719 201.083 C 272.550 200.817,272.409 200.747,272.406 200.927 C 272.393 201.624,268.000 198.018,268.000 197.311 C 268.000 197.175,267.709 196.741,267.353 196.348 C 266.947 195.900,266.596 194.472,266.409 192.517 C 266.167 189.974,266.102 189.768,266.060 191.400 M118.157 190.500 C 118.302 191.336,119.645 193.688,119.857 193.476 C 119.967 193.367,119.680 192.540,119.220 191.639 C 118.376 189.986,117.998 189.580,118.157 190.500 M173.200 190.216 C 173.200 190.335,173.547 191.112,173.971 191.943 C 174.803 193.575,176.000 194.817,176.000 194.049 C 176.000 193.802,175.814 193.600,175.586 193.600 C 175.358 193.600,174.824 192.790,174.400 191.800 C 173.727 190.229,173.200 189.534,173.200 190.216 M203.787 190.600 C 203.684 190.930,203.512 191.479,203.405 191.821 C 203.296 192.166,203.385 192.333,203.605 192.197 C 203.822 192.063,204.000 191.693,204.000 191.376 C 204.000 190.618,205.952 190.638,206.966 191.405 C 207.810 192.043,207.297 194.646,206.090 195.853 C 205.627 196.316,205.631 196.400,206.117 196.400 C 206.823 196.400,208.158 193.049,207.879 191.979 C 207.765 191.545,207.880 191.188,208.137 191.173 C 208.579 191.147,204.937 190.054,204.287 190.018 C 204.116 190.008,203.891 190.270,203.787 190.600 M290.023 191.450 C 289.200 192.846,289.085 193.759,289.865 192.710 C 290.345 192.064,291.233 190.000,291.031 190.000 C 290.947 190.000,290.494 190.653,290.023 191.450 M143.518 192.748 C 141.864 196.872,139.951 198.797,136.781 199.529 C 131.118 200.836,125.743 199.429,122.164 195.703 C 121.264 194.767,120.370 194.000,120.179 194.000 C 119.533 194.000,123.772 198.009,125.193 198.742 C 132.354 202.435,141.280 200.186,143.425 194.149 C 144.128 192.167,144.168 192.133,145.272 192.550 C 146.563 193.037,146.673 193.611,145.746 195.027 C 145.386 195.576,145.182 196.115,145.292 196.225 C 145.566 196.499,146.710 194.697,147.003 193.530 C 147.397 191.959,144.128 191.225,143.518 192.748 M201.764 194.554 C 199.967 197.393,197.216 198.600,192.538 198.600 C 190.483 198.600,188.801 198.735,188.801 198.900 C 188.799 199.516,195.380 199.211,197.392 198.502 C 199.477 197.767,202.904 194.773,203.118 193.500 C 203.303 192.397,202.959 192.665,201.764 194.554 M115.600 194.644 C 115.600 195.902,120.189 199.732,122.955 200.783 C 125.016 201.566,124.488 200.937,122.113 199.779 C 120.841 199.159,118.855 197.687,117.700 196.508 C 116.545 195.329,115.600 194.490,115.600 194.644 M176.238 195.666 C 177.625 197.243,179.794 199.178,180.186 199.189 C 180.399 199.195,179.595 198.210,178.400 197.000 C 176.319 194.893,174.654 193.866,176.238 195.666 M143.588 198.129 C 141.887 199.704,138.185 201.646,137.433 201.357 C 137.129 201.241,136.762 201.338,136.617 201.573 C 136.456 201.833,134.656 202.000,132.000 202.000 C 129.344 202.000,127.544 201.833,127.383 201.573 C 127.238 201.338,126.844 201.251,126.509 201.380 C 126.173 201.508,125.606 201.396,125.249 201.129 C 124.774 200.774,124.791 200.852,125.314 201.422 C 126.586 202.807,137.058 202.573,140.000 201.094 C 142.276 199.949,145.535 197.401,145.179 197.045 C 145.067 196.934,144.351 197.421,143.588 198.129 M204.823 197.757 C 204.312 198.712,200.609 200.800,199.425 200.800 C 199.081 200.800,198.800 200.980,198.800 201.200 C 198.800 201.727,198.893 201.715,200.892 200.928 C 203.527 199.892,207.115 196.800,205.682 196.800 C 205.491 196.800,205.105 197.231,204.823 197.757 M226.520 199.200 C 226.520 200.410,226.595 200.905,226.687 200.300 C 226.778 199.695,226.778 198.705,226.687 198.100 C 226.595 197.495,226.520 197.990,226.520 199.200 M180.800 199.387 C 180.800 199.687,183.897 201.202,184.484 201.188 C 184.791 201.181,184.714 201.009,184.296 200.766 C 183.157 200.102,180.800 199.173,180.800 199.387 M185.261 201.178 C 185.792 202.786,198.400 203.151,198.400 201.559 C 198.400 201.320,198.132 201.309,197.700 201.531 C 195.716 202.548,187.066 202.247,185.691 201.113 C 185.177 200.689,185.103 200.700,185.261 201.178 " stroke="none" fill="#c96e84" fill-rule="evenodd"></path></g></svg>